<mxfile host="65bd71144e">
    <diagram id="LY1r3zSqgDOuW9g7N6AZ" name="Inventory sync Flow">
        <mxGraphModel dx="1305" dy="1881" grid="1" gridSize="10" guides="1" tooltips="1" connect="1" arrows="1" fold="1" page="1" pageScale="1" pageWidth="850" pageHeight="1100" math="0" shadow="0">
            <root>
                <mxCell id="0"/>
                <mxCell id="1" parent="0"/>
                <mxCell id="GcZKbSQ_YcJPVwbaulUB-1" value="Customer" style="shape=umlActor;verticalLabelPosition=bottom;verticalAlign=top;html=1;outlineConnect=0;" parent="1" vertex="1">
                    <mxGeometry x="20" y="80" width="30" height="60" as="geometry"/>
                </mxCell>
                <mxCell id="GcZKbSQ_YcJPVwbaulUB-8" style="edgeStyle=none;html=1;entryX=0;entryY=0.5;entryDx=0;entryDy=0;exitX=1;exitY=0.75;exitDx=0;exitDy=0;" parent="1" source="GcZKbSQ_YcJPVwbaulUB-12" target="GcZKbSQ_YcJPVwbaulUB-7" edge="1">
                    <mxGeometry relative="1" as="geometry">
                        <mxPoint x="195" y="250" as="sourcePoint"/>
                    </mxGeometry>
                </mxCell>
                <mxCell id="GcZKbSQ_YcJPVwbaulUB-17" style="edgeStyle=none;html=1;entryX=0.193;entryY=1.063;entryDx=0;entryDy=0;entryPerimeter=0;" parent="1" source="GcZKbSQ_YcJPVwbaulUB-5" target="GcZKbSQ_YcJPVwbaulUB-15" edge="1">
                    <mxGeometry relative="1" as="geometry"/>
                </mxCell>
                <mxCell id="GcZKbSQ_YcJPVwbaulUB-5" value="Inventory for item drop by amount on the order" style="whiteSpace=wrap;html=1;rounded=1;fillColor=#006600;" parent="1" vertex="1">
                    <mxGeometry x="290" y="150" width="120" height="60" as="geometry"/>
                </mxCell>
                <mxCell id="GcZKbSQ_YcJPVwbaulUB-20" style="edgeStyle=none;html=1;" parent="1" source="GcZKbSQ_YcJPVwbaulUB-7" target="GcZKbSQ_YcJPVwbaulUB-23" edge="1">
                    <mxGeometry relative="1" as="geometry">
                        <mxPoint x="870" y="445" as="targetPoint"/>
                    </mxGeometry>
                </mxCell>
                <mxCell id="GcZKbSQ_YcJPVwbaulUB-7" value="Order is sent via weka to MYOB" style="shape=step;perimeter=stepPerimeter;whiteSpace=wrap;html=1;fixedSize=1;fillColor=#006666;" parent="1" vertex="1">
                    <mxGeometry x="425" y="400" width="120" height="80" as="geometry"/>
                </mxCell>
                <mxCell id="GcZKbSQ_YcJPVwbaulUB-10" value="" style="edgeStyle=none;html=1;exitX=1;exitY=1;exitDx=0;exitDy=0;exitPerimeter=0;entryX=0.5;entryY=0;entryDx=0;entryDy=0;" parent="1" source="GcZKbSQ_YcJPVwbaulUB-1" target="GcZKbSQ_YcJPVwbaulUB-12" edge="1">
                    <mxGeometry relative="1" as="geometry">
                        <mxPoint x="130" y="190" as="targetPoint"/>
                    </mxGeometry>
                </mxCell>
                <mxCell id="GcZKbSQ_YcJPVwbaulUB-11" style="edgeStyle=none;html=1;" parent="1" source="GcZKbSQ_YcJPVwbaulUB-9" target="GcZKbSQ_YcJPVwbaulUB-1" edge="1">
                    <mxGeometry relative="1" as="geometry"/>
                </mxCell>
                <mxCell id="GcZKbSQ_YcJPVwbaulUB-9" value="Shopify display item and inventory information to potential customer" style="whiteSpace=wrap;html=1;aspect=fixed;fillColor=#006600;" parent="1" vertex="1">
                    <mxGeometry x="140" y="-30" width="110" height="110" as="geometry"/>
                </mxCell>
                <mxCell id="GcZKbSQ_YcJPVwbaulUB-16" style="edgeStyle=none;html=1;" parent="1" source="GcZKbSQ_YcJPVwbaulUB-12" target="GcZKbSQ_YcJPVwbaulUB-5" edge="1">
                    <mxGeometry relative="1" as="geometry"/>
                </mxCell>
                <mxCell id="GcZKbSQ_YcJPVwbaulUB-12" value="Places Order for Item in shopify" style="shape=document;whiteSpace=wrap;html=1;boundedLbl=1;fillColor=#006600;" parent="1" vertex="1">
                    <mxGeometry x="140" y="200" width="120" height="80" as="geometry"/>
                </mxCell>
                <mxCell id="GcZKbSQ_YcJPVwbaulUB-18" style="edgeStyle=none;html=1;entryX=1;entryY=0.5;entryDx=0;entryDy=0;" parent="1" source="GcZKbSQ_YcJPVwbaulUB-15" target="GcZKbSQ_YcJPVwbaulUB-9" edge="1">
                    <mxGeometry relative="1" as="geometry"/>
                </mxCell>
                <mxCell id="GcZKbSQ_YcJPVwbaulUB-15" value="Shopify item record:&lt;br&gt;InvLevel = n" style="shape=internalStorage;whiteSpace=wrap;html=1;backgroundOutline=1;fillColor=#006600;dx=10;dy=10;" parent="1" vertex="1">
                    <mxGeometry x="340" y="10" width="150" height="80" as="geometry"/>
                </mxCell>
                <mxCell id="GcZKbSQ_YcJPVwbaulUB-27" style="edgeStyle=none;html=1;entryX=0;entryY=0.5;entryDx=0;entryDy=0;" parent="1" source="GcZKbSQ_YcJPVwbaulUB-19" target="GcZKbSQ_YcJPVwbaulUB-26" edge="1">
                    <mxGeometry relative="1" as="geometry"/>
                </mxCell>
                <mxCell id="GcZKbSQ_YcJPVwbaulUB-28" value="Non stock Kit" style="edgeLabel;html=1;align=center;verticalAlign=middle;resizable=0;points=[];" parent="GcZKbSQ_YcJPVwbaulUB-27" vertex="1" connectable="0">
                    <mxGeometry x="0.3915" y="-2" relative="1" as="geometry">
                        <mxPoint x="-30" y="-9" as="offset"/>
                    </mxGeometry>
                </mxCell>
                <mxCell id="bdUa8sQTV6vMkzc8LIus-3" style="edgeStyle=none;html=1;fontSize=13;fontColor=#000000;endArrow=oval;endFill=1;" parent="1" source="GcZKbSQ_YcJPVwbaulUB-19" edge="1">
                    <mxGeometry relative="1" as="geometry">
                        <mxPoint x="890" y="260" as="targetPoint"/>
                    </mxGeometry>
                </mxCell>
                <mxCell id="bdUa8sQTV6vMkzc8LIus-5" value="stocked" style="edgeLabel;html=1;align=center;verticalAlign=middle;resizable=0;points=[];fontSize=13;fontColor=#FFFFFF;" parent="bdUa8sQTV6vMkzc8LIus-3" vertex="1" connectable="0">
                    <mxGeometry x="-0.2303" relative="1" as="geometry">
                        <mxPoint as="offset"/>
                    </mxGeometry>
                </mxCell>
                <mxCell id="GcZKbSQ_YcJPVwbaulUB-19" value="Is Item &lt;br&gt;Stocked Inventory&lt;br&gt;or&amp;nbsp;&lt;br&gt;&amp;nbsp;non stock kit?" style="rhombus;whiteSpace=wrap;html=1;fillColor=#FF6666;" parent="1" vertex="1">
                    <mxGeometry x="970" y="250" width="150" height="150" as="geometry"/>
                </mxCell>
                <mxCell id="GcZKbSQ_YcJPVwbaulUB-25" style="edgeStyle=none;html=1;entryX=1;entryY=0.5;entryDx=0;entryDy=0;" parent="1" source="GcZKbSQ_YcJPVwbaulUB-21" target="GcZKbSQ_YcJPVwbaulUB-15" edge="1">
                    <mxGeometry relative="1" as="geometry"/>
                </mxCell>
                <mxCell id="GcZKbSQ_YcJPVwbaulUB-21" value="Inventory is &lt;br&gt;sent to shopify via weka&lt;br&gt;(No change to current behaviour)" style="shape=step;perimeter=stepPerimeter;whiteSpace=wrap;html=1;fixedSize=1;fillColor=#006666;" parent="1" vertex="1">
                    <mxGeometry x="590" y="160" width="170" height="80" as="geometry"/>
                </mxCell>
                <mxCell id="-n2A34vFrgaTMqY026oD-2" value="" style="edgeStyle=none;html=1;strokeColor=#CCCCCC;fontSize=13;fontColor=#000000;endArrow=block;endFill=1;" parent="1" source="GcZKbSQ_YcJPVwbaulUB-23" target="-n2A34vFrgaTMqY026oD-1" edge="1">
                    <mxGeometry relative="1" as="geometry"/>
                </mxCell>
                <mxCell id="GcZKbSQ_YcJPVwbaulUB-23" value="Order lands in MYOB" style="rounded=1;whiteSpace=wrap;html=1;fillColor=#660066;" parent="1" vertex="1">
                    <mxGeometry x="615" y="420" width="120" height="60" as="geometry"/>
                </mxCell>
                <mxCell id="GcZKbSQ_YcJPVwbaulUB-33" value="" style="edgeStyle=none;html=1;" parent="1" source="GcZKbSQ_YcJPVwbaulUB-26" target="GcZKbSQ_YcJPVwbaulUB-32" edge="1">
                    <mxGeometry relative="1" as="geometry"/>
                </mxCell>
                <mxCell id="GcZKbSQ_YcJPVwbaulUB-26" value="Get current Kit revision/s" style="rounded=1;whiteSpace=wrap;html=1;fillColor=#660066;" parent="1" vertex="1">
                    <mxGeometry x="1190" y="260" width="120" height="60" as="geometry"/>
                </mxCell>
                <mxCell id="GcZKbSQ_YcJPVwbaulUB-29" value="&lt;font style=&quot;font-size: 18px;&quot;&gt;I need to review the MYOB Documentation, to nail out the specifics.&lt;br&gt;&lt;br&gt;However even in a realistic worst case This overall plan will work.&lt;br&gt;Plan will be designed to rely as heavy on existing and native functionality as possible&lt;/font&gt;" style="shape=note;html=1;backgroundOutline=1;darkOpacity=0.05;fillColor=#FFFFCC;size=16;strokeColor=#4D4D4D;fontColor=#000000;whiteSpace=wrap;labelBorderColor=none;" parent="1" vertex="1">
                    <mxGeometry x="1290" y="-440" width="320" height="260" as="geometry"/>
                </mxCell>
                <mxCell id="GcZKbSQ_YcJPVwbaulUB-30" value="Field will need to be added to select an active revision.&lt;br&gt;Unless you can set a default" style="shape=note;html=1;backgroundOutline=1;darkOpacity=0.05;fillColor=#FFFFCC;size=15;strokeColor=#4D4D4D;fontColor=#000000;whiteSpace=wrap;labelBorderColor=none;" parent="1" vertex="1">
                    <mxGeometry x="1060" y="440" width="105" height="110" as="geometry"/>
                </mxCell>
                <mxCell id="GcZKbSQ_YcJPVwbaulUB-35" style="edgeStyle=none;html=1;" parent="1" source="GcZKbSQ_YcJPVwbaulUB-32" target="GcZKbSQ_YcJPVwbaulUB-34" edge="1">
                    <mxGeometry relative="1" as="geometry"/>
                </mxCell>
                <mxCell id="GcZKbSQ_YcJPVwbaulUB-32" value="Get List of all components" style="whiteSpace=wrap;html=1;fillColor=#660066;rounded=1;" parent="1" vertex="1">
                    <mxGeometry x="1380" y="250" width="120" height="60" as="geometry"/>
                </mxCell>
                <mxCell id="hhbmnv4_vQJKUALnF63v-2" value="" style="edgeStyle=none;html=1;" parent="1" source="GcZKbSQ_YcJPVwbaulUB-34" target="hhbmnv4_vQJKUALnF63v-1" edge="1">
                    <mxGeometry relative="1" as="geometry"/>
                </mxCell>
                <mxCell id="GcZKbSQ_YcJPVwbaulUB-34" value="get Inventory for (either specific location or all locations)" style="whiteSpace=wrap;html=1;fillColor=#660066;rounded=1;" parent="1" vertex="1">
                    <mxGeometry x="1490" y="130" width="120" height="60" as="geometry"/>
                </mxCell>
                <mxCell id="hhbmnv4_vQJKUALnF63v-4" value="" style="edgeStyle=none;html=1;" parent="1" source="hhbmnv4_vQJKUALnF63v-1" target="hhbmnv4_vQJKUALnF63v-3" edge="1">
                    <mxGeometry relative="1" as="geometry"/>
                </mxCell>
                <mxCell id="hhbmnv4_vQJKUALnF63v-1" value="Detrmine lowest QTY" style="whiteSpace=wrap;html=1;fillColor=#660066;rounded=1;" parent="1" vertex="1">
                    <mxGeometry x="1430" y="-30" width="120" height="60" as="geometry"/>
                </mxCell>
                <mxCell id="hhbmnv4_vQJKUALnF63v-5" style="edgeStyle=none;html=1;fillColor=#00CC00;" parent="1" source="hhbmnv4_vQJKUALnF63v-3" target="GcZKbSQ_YcJPVwbaulUB-21" edge="1">
                    <mxGeometry relative="1" as="geometry"/>
                </mxCell>
                <mxCell id="hhbmnv4_vQJKUALnF63v-6" value="YES" style="edgeLabel;html=1;align=center;verticalAlign=middle;resizable=0;points=[];" parent="hhbmnv4_vQJKUALnF63v-5" vertex="1" connectable="0">
                    <mxGeometry x="-0.1653" y="-3" relative="1" as="geometry">
                        <mxPoint as="offset"/>
                    </mxGeometry>
                </mxCell>
                <mxCell id="hhbmnv4_vQJKUALnF63v-8" value="NO" style="edgeStyle=none;html=1;fillColor=#FF0000;" parent="1" source="hhbmnv4_vQJKUALnF63v-3" target="hhbmnv4_vQJKUALnF63v-7" edge="1">
                    <mxGeometry relative="1" as="geometry"/>
                </mxCell>
                <mxCell id="hhbmnv4_vQJKUALnF63v-3" value="Can WEKA platform &lt;br&gt;send level for &lt;br&gt;non stock kit?" style="rhombus;whiteSpace=wrap;html=1;fillColor=#FF6666;rounded=1;" parent="1" vertex="1">
                    <mxGeometry x="1120" y="-140" width="180" height="140" as="geometry"/>
                </mxCell>
                <mxCell id="hhbmnv4_vQJKUALnF63v-9" style="edgeStyle=none;html=1;entryX=1;entryY=0.25;entryDx=0;entryDy=0;" parent="1" source="hhbmnv4_vQJKUALnF63v-7" target="GcZKbSQ_YcJPVwbaulUB-15" edge="1">
                    <mxGeometry relative="1" as="geometry"/>
                </mxCell>
                <mxCell id="hhbmnv4_vQJKUALnF63v-7" value="Send QTY via webservices." style="rounded=1;whiteSpace=wrap;html=1;fillColor=#660066;" parent="1" vertex="1">
                    <mxGeometry x="900" y="-160" width="120" height="60" as="geometry"/>
                </mxCell>
                <mxCell id="qjT2JvjEHwXLYAEJNMRI-2" style="edgeStyle=none;html=1;fillColor=#FF0000;startArrow=none;" parent="1" source="5S789iHpQaDpRHOYdibH-2" target="GcZKbSQ_YcJPVwbaulUB-26" edge="1">
                    <mxGeometry relative="1" as="geometry"/>
                </mxCell>
                <mxCell id="qjT2JvjEHwXLYAEJNMRI-1" value="Shopify metefaild may need to be added to specify which revision if orders will be placed in a manner that causes revisions to overlap.&lt;br&gt;" style="shape=note;html=1;backgroundOutline=1;darkOpacity=0.05;fillColor=#FFFFCC;size=14;strokeColor=#4D4D4D;fontColor=#000000;whiteSpace=wrap;labelBorderColor=none;" parent="1" vertex="1">
                    <mxGeometry x="1205" y="435" width="140" height="120" as="geometry"/>
                </mxCell>
                <mxCell id="qjT2JvjEHwXLYAEJNMRI-5" style="edgeStyle=none;html=1;entryX=0.395;entryY=0.986;entryDx=0;entryDy=0;entryPerimeter=0;fillColor=#FF0000;" parent="1" source="qjT2JvjEHwXLYAEJNMRI-4" target="GcZKbSQ_YcJPVwbaulUB-32" edge="1">
                    <mxGeometry relative="1" as="geometry"/>
                </mxCell>
                <mxCell id="qjT2JvjEHwXLYAEJNMRI-4" value="Does MYOB have a available to sell field easily acessable from the Kit revision record?" style="shape=note;html=1;backgroundOutline=1;darkOpacity=0.05;fillColor=#FFFFCC;strokeColor=#4D4D4D;fontColor=#000000;whiteSpace=wrap;labelBorderColor=none;" parent="1" vertex="1">
                    <mxGeometry x="1380" y="380" width="140" height="160" as="geometry"/>
                </mxCell>
                <mxCell id="qjT2JvjEHwXLYAEJNMRI-7" value="OPTIONS:&lt;br&gt;1. Do we want to factor in a reserve buffer?" style="shape=callout;whiteSpace=wrap;html=1;perimeter=calloutPerimeter;fillColor=#FFFFCC;fontColor=#000000;" parent="1" vertex="1">
                    <mxGeometry x="570" y="-350" width="190" height="240" as="geometry"/>
                </mxCell>
                <mxCell id="bdUa8sQTV6vMkzc8LIus-6" style="edgeStyle=none;html=1;fontSize=13;fontColor=#FFFFFF;" parent="1" target="GcZKbSQ_YcJPVwbaulUB-21" edge="1">
                    <mxGeometry relative="1" as="geometry">
                        <mxPoint x="890" y="260" as="sourcePoint"/>
                    </mxGeometry>
                </mxCell>
                <mxCell id="bdUa8sQTV6vMkzc8LIus-7" style="edgeStyle=none;html=1;fontSize=13;fontColor=#FFFFFF;" parent="1" target="bdUa8sQTV6vMkzc8LIus-8" edge="1">
                    <mxGeometry relative="1" as="geometry">
                        <mxPoint x="970.0000000000002" y="200" as="targetPoint"/>
                        <mxPoint x="890" y="260" as="sourcePoint"/>
                    </mxGeometry>
                </mxCell>
                <mxCell id="bdUa8sQTV6vMkzc8LIus-9" value="Yes" style="edgeStyle=none;html=1;entryX=0;entryY=0;entryDx=0;entryDy=0;fontSize=13;fontColor=#FFFFFF;strokeColor=#00FF00;" parent="1" source="bdUa8sQTV6vMkzc8LIus-8" target="GcZKbSQ_YcJPVwbaulUB-26" edge="1">
                    <mxGeometry relative="1" as="geometry"/>
                </mxCell>
                <mxCell id="bdUa8sQTV6vMkzc8LIus-8" value="Perform lookup to determine if inventory item is part of an active non stock kit BOM" style="rounded=1;whiteSpace=wrap;html=1;labelBorderColor=none;strokeColor=#4D4D4D;fontSize=13;fontColor=#FFFFFF;fillColor=#660066;" parent="1" vertex="1">
                    <mxGeometry x="980" y="130" width="130" height="80" as="geometry"/>
                </mxCell>
                <mxCell id="5S789iHpQaDpRHOYdibH-3" value="" style="edgeStyle=none;html=1;entryX=0.299;entryY=0.995;entryDx=0;entryDy=0;entryPerimeter=0;strokeColor=#CCCCCC;fontSize=13;fontColor=#FFFFFF;endArrow=none;endFill=1;" parent="1" source="GcZKbSQ_YcJPVwbaulUB-30" target="5S789iHpQaDpRHOYdibH-2" edge="1">
                    <mxGeometry relative="1" as="geometry">
                        <mxPoint x="1133.187188019967" y="445" as="sourcePoint"/>
                        <mxPoint x="1225.88" y="319.7000000000003" as="targetPoint"/>
                    </mxGeometry>
                </mxCell>
                <mxCell id="5S789iHpQaDpRHOYdibH-4" value="" style="edgeStyle=none;html=1;fillColor=#FF0000;endArrow=none;" parent="1" source="qjT2JvjEHwXLYAEJNMRI-1" target="5S789iHpQaDpRHOYdibH-2" edge="1">
                    <mxGeometry relative="1" as="geometry">
                        <mxPoint x="1259.333333333334" y="430" as="sourcePoint"/>
                        <mxPoint x="1252.0000000000005" y="320" as="targetPoint"/>
                    </mxGeometry>
                </mxCell>
                <mxCell id="5S789iHpQaDpRHOYdibH-2" value="&lt;font color=&quot;#000000&quot;&gt;OR&lt;/font&gt;" style="ellipse;whiteSpace=wrap;html=1;labelBorderColor=none;strokeColor=#4D4D4D;fontSize=13;fontColor=#FFFFFF;fillColor=#CCCCCC;" parent="1" vertex="1">
                    <mxGeometry x="1180" y="360" width="120" height="20" as="geometry"/>
                </mxCell>
                <mxCell id="5S789iHpQaDpRHOYdibH-6" style="edgeStyle=none;html=1;strokeColor=#CCCCCC;fontSize=13;fontColor=#000000;endArrow=oval;endFill=1;" parent="1" source="5S789iHpQaDpRHOYdibH-5" target="qjT2JvjEHwXLYAEJNMRI-1" edge="1">
                    <mxGeometry relative="1" as="geometry"/>
                </mxCell>
                <mxCell id="5S789iHpQaDpRHOYdibH-5" value="This would be my prefereance as it handles change to business practices however to avoid data discrepancies it might pay to have a product sync established at least for N/S kits" style="shape=note;whiteSpace=wrap;html=1;backgroundOutline=1;darkOpacity=0.05;labelBorderColor=none;strokeColor=#4D4D4D;fontSize=13;fontColor=#000000;fillColor=#FFFFCC;" parent="1" vertex="1">
                    <mxGeometry x="1220" y="600" width="140" height="200" as="geometry"/>
                </mxCell>
                <mxCell id="-n2A34vFrgaTMqY026oD-3" style="edgeStyle=none;html=1;entryX=0.267;entryY=0.8;entryDx=0;entryDy=0;entryPerimeter=0;strokeColor=#CCCCCC;fontSize=13;fontColor=#000000;endArrow=block;endFill=1;" parent="1" source="-n2A34vFrgaTMqY026oD-1" target="GcZKbSQ_YcJPVwbaulUB-19" edge="1">
                    <mxGeometry relative="1" as="geometry"/>
                </mxCell>
                <mxCell id="-n2A34vFrgaTMqY026oD-1" value="Creates an inventory change notification" style="rounded=1;whiteSpace=wrap;html=1;fillColor=#660066;" parent="1" vertex="1">
                    <mxGeometry x="820" y="420" width="120" height="60" as="geometry"/>
                </mxCell>
                <mxCell id="-n2A34vFrgaTMqY026oD-6" style="edgeStyle=none;html=1;entryX=0.5;entryY=1;entryDx=0;entryDy=0;strokeColor=#CCCCCC;fontSize=13;fontColor=#000000;endArrow=block;endFill=1;" parent="1" source="-n2A34vFrgaTMqY026oD-5" target="-n2A34vFrgaTMqY026oD-1" edge="1">
                    <mxGeometry relative="1" as="geometry"/>
                </mxCell>
                <mxCell id="-n2A34vFrgaTMqY026oD-5" value="&lt;font color=&quot;#ffffff&quot;&gt;Assembly record is submittted by user&lt;/font&gt;" style="whiteSpace=wrap;html=1;fillColor=#660066;rounded=1;labelBorderColor=none;strokeColor=#4D4D4D;fontSize=13;fontColor=#000000;" parent="1" vertex="1">
                    <mxGeometry x="850" y="540" width="120" height="60" as="geometry"/>
                </mxCell>
                <mxCell id="-n2A34vFrgaTMqY026oD-8" style="edgeStyle=none;html=1;entryX=0;entryY=1;entryDx=0;entryDy=0;strokeColor=#CCCCCC;fontSize=13;fontColor=#FFFFFF;endArrow=block;endFill=1;" parent="1" source="-n2A34vFrgaTMqY026oD-7" target="-n2A34vFrgaTMqY026oD-1" edge="1">
                    <mxGeometry relative="1" as="geometry"/>
                </mxCell>
                <mxCell id="-n2A34vFrgaTMqY026oD-7" value="&lt;font color=&quot;#000000&quot;&gt;Will an order for a non stock kit create an inventory change notification?&lt;/font&gt;" style="shape=note;whiteSpace=wrap;html=1;backgroundOutline=1;darkOpacity=0.05;labelBorderColor=none;strokeColor=#4D4D4D;fontSize=13;fontColor=#FFFFFF;fillColor=#FFFFCC;" parent="1" vertex="1">
                    <mxGeometry x="650" y="520" width="130" height="120" as="geometry"/>
                </mxCell>
                <mxCell id="6_Pf2CV-2c3QZ0pw36Di-1" value="Is Kit Revision specified on the Sales Order?" style="shape=note;html=1;backgroundOutline=1;darkOpacity=0.05;fillColor=#FFFFCC;size=15;strokeColor=#4D4D4D;fontColor=#000000;whiteSpace=wrap;labelBorderColor=none;" parent="1" vertex="1">
                    <mxGeometry x="1085" y="590" width="105" height="110" as="geometry"/>
                </mxCell>
                <mxCell id="6_Pf2CV-2c3QZ0pw36Di-4" style="edgeStyle=none;html=1;entryX=1;entryY=0.25;entryDx=0;entryDy=0;fontSize=18;fontColor=#000000;" parent="1" source="6_Pf2CV-2c3QZ0pw36Di-2" target="GcZKbSQ_YcJPVwbaulUB-34" edge="1">
                    <mxGeometry relative="1" as="geometry"/>
                </mxCell>
                <mxCell id="6_Pf2CV-2c3QZ0pw36Di-2" value="Are MYOB products shared across all shopify Stores?" style="shape=note;html=1;backgroundOutline=1;darkOpacity=0.05;fillColor=#FFFFCC;strokeColor=#4D4D4D;fontColor=#000000;whiteSpace=wrap;labelBorderColor=none;size=23;" parent="1" vertex="1">
                    <mxGeometry x="1710" y="60" width="150" height="80" as="geometry"/>
                </mxCell>
                <mxCell id="6_Pf2CV-2c3QZ0pw36Di-5" style="edgeStyle=none;html=1;entryX=1;entryY=0.75;entryDx=0;entryDy=0;fontSize=18;fontColor=#000000;" parent="1" source="6_Pf2CV-2c3QZ0pw36Di-3" target="GcZKbSQ_YcJPVwbaulUB-34" edge="1">
                    <mxGeometry relative="1" as="geometry"/>
                </mxCell>
                <mxCell id="6_Pf2CV-2c3QZ0pw36Di-3" value="Does a shopify store get fulfilled from a single MYOB location?" style="shape=note;html=1;backgroundOutline=1;darkOpacity=0.05;fillColor=#FFFFCC;strokeColor=#4D4D4D;fontColor=#000000;whiteSpace=wrap;labelBorderColor=none;size=18;" parent="1" vertex="1">
                    <mxGeometry x="1710" y="160" width="150" height="80" as="geometry"/>
                </mxCell>
            </root>
        </mxGraphModel>
    </diagram>
    <diagram id="l-lvAeruPmxF9iLmNtkb" name="PROFESSIONAL TINT KIT BOM">
        <mxGraphModel dx="3330" dy="5005" grid="1" gridSize="10" guides="1" tooltips="1" connect="1" arrows="1" fold="1" page="1" pageScale="1" pageWidth="850" pageHeight="1100" math="0" shadow="0">
            <root>
                <mxCell id="0"/>
                <mxCell id="1" parent="0"/>
                <mxCell id="OsrczBIvLuB8sDZj5NdH-77" value="" style="rounded=1;whiteSpace=wrap;html=1;fillColor=none;strokeColor=#FF3333;strokeWidth=5;" vertex="1" parent="1">
                    <mxGeometry x="510" y="305" width="3200" height="125" as="geometry"/>
                </mxCell>
                <mxCell id="OsrczBIvLuB8sDZj5NdH-1" value="LEGEND" style="swimlane;whiteSpace=wrap;html=1;fillColor=#FFFFFF;" vertex="1" parent="1">
                    <mxGeometry x="1420" y="-250" width="200" height="330" as="geometry">
                        <mxRectangle x="20" y="40" width="90" height="30" as="alternateBounds"/>
                    </mxGeometry>
                </mxCell>
                <mxCell id="OsrczBIvLuB8sDZj5NdH-3" value="Stock Item (component)" style="rounded=0;whiteSpace=wrap;html=1;fillColor=#E6E6E6;" vertex="1" parent="OsrczBIvLuB8sDZj5NdH-1">
                    <mxGeometry x="40" y="30" width="120" height="40" as="geometry"/>
                </mxCell>
                <mxCell id="OsrczBIvLuB8sDZj5NdH-4" value="Stock Kit (light)" style="rounded=1;whiteSpace=wrap;html=1;fillColor=#E6FFCC;" vertex="1" parent="OsrczBIvLuB8sDZj5NdH-1">
                    <mxGeometry x="40" y="80" width="120" height="40" as="geometry"/>
                </mxCell>
                <mxCell id="OsrczBIvLuB8sDZj5NdH-5" value="Stock Kit (Heavy)" style="shape=parallelogram;perimeter=parallelogramPerimeter;whiteSpace=wrap;html=1;fixedSize=1;fillColor=#CCE5FF;" vertex="1" parent="OsrczBIvLuB8sDZj5NdH-1">
                    <mxGeometry x="40" y="130" width="120" height="60" as="geometry"/>
                </mxCell>
                <mxCell id="OsrczBIvLuB8sDZj5NdH-6" value="Non-Stock Kit" style="shape=trapezoid;perimeter=trapezoidPerimeter;whiteSpace=wrap;html=1;fixedSize=1;fillColor=#FFCCFF;" vertex="1" parent="OsrczBIvLuB8sDZj5NdH-1">
                    <mxGeometry x="40" y="200" width="120" height="60" as="geometry"/>
                </mxCell>
                <mxCell id="OsrczBIvLuB8sDZj5NdH-8" value="Kit Revision" style="ellipse;whiteSpace=wrap;html=1;fillColor=#FF3333;" vertex="1" parent="OsrczBIvLuB8sDZj5NdH-1">
                    <mxGeometry x="40" y="280" width="120" height="30" as="geometry"/>
                </mxCell>
                <mxCell id="OsrczBIvLuB8sDZj5NdH-7" value="InventoryID :&amp;nbsp;BCKITBAGII&amp;nbsp;&lt;br&gt;Description :&amp;nbsp;DEBOSSED BAG PRO TINT KIT" style="rounded=0;whiteSpace=wrap;html=1;fillColor=#E6E6E6;" vertex="1" parent="1">
                    <mxGeometry x="4450" y="235" width="320" height="30" as="geometry"/>
                </mxCell>
                <mxCell id="OsrczBIvLuB8sDZj5NdH-10" value="InventoryID :&amp;nbsp;&amp;nbsp;XTPROGWTSTICK&lt;br&gt;Description :&amp;nbsp;TINT STICK" style="rounded=0;whiteSpace=wrap;html=1;fillColor=#E6E6E6;" vertex="1" parent="1">
                    <mxGeometry x="3690" y="235" width="320" height="30" as="geometry"/>
                </mxCell>
                <mxCell id="OsrczBIvLuB8sDZj5NdH-12" value="InventoryID :&amp;nbsp;&amp;nbsp;XTPROSSBOXNB&lt;br&gt;Description :&amp;nbsp;BOX NATURAL BROWN" style="rounded=0;whiteSpace=wrap;html=1;fillColor=#E6E6E6;" vertex="1" parent="1">
                    <mxGeometry x="880" y="370" width="320" height="30" as="geometry"/>
                </mxCell>
                <mxCell id="OsrczBIvLuB8sDZj5NdH-13" value="InventoryID :&amp;nbsp;&amp;nbsp;XTPROGWNB&lt;br&gt;Description :&amp;nbsp;TINT NATURAL BROWN&amp;nbsp;&amp;nbsp;" style="rounded=0;whiteSpace=wrap;html=1;fillColor=#E6E6E6;" vertex="1" parent="1">
                    <mxGeometry x="880" y="320" width="320" height="30" as="geometry"/>
                </mxCell>
                <mxCell id="OsrczBIvLuB8sDZj5NdH-14" value="InventoryID :&amp;nbsp;&amp;nbsp;XMDSSBCHNAMD&lt;br&gt;Description :&amp;nbsp;BOX GLASS MIXING DISH" style="rounded=0;whiteSpace=wrap;html=1;fillColor=#E6E6E6;" vertex="1" parent="1">
                    <mxGeometry x="1220" y="370" width="320" height="30" as="geometry"/>
                </mxCell>
                <mxCell id="OsrczBIvLuB8sDZj5NdH-15" value="InventoryID :&amp;nbsp;&amp;nbsp;XMDISH&lt;br&gt;Description :&amp;nbsp;&amp;nbsp;MIXING DISH" style="rounded=0;whiteSpace=wrap;html=1;fillColor=#E6E6E6;" vertex="1" parent="1">
                    <mxGeometry x="1220" y="320" width="320" height="30" as="geometry"/>
                </mxCell>
                <mxCell id="OsrczBIvLuB8sDZj5NdH-16" value="InventoryID :&amp;nbsp;&amp;nbsp;BCMAP&lt;br&gt;Description :&amp;nbsp;&amp;nbsp;CHARCOAL MAPPING STRING" style="rounded=0;whiteSpace=wrap;html=1;fillColor=#E6E6E6;" vertex="1" parent="1">
                    <mxGeometry x="4070" y="235" width="320" height="30" as="geometry"/>
                </mxCell>
                <mxCell id="OsrczBIvLuB8sDZj5NdH-17" value="InventoryID :&amp;nbsp;&amp;nbsp;XTSSSLANT&lt;br&gt;Description :&amp;nbsp;BOX SLANT TWEEZERS" style="rounded=0;whiteSpace=wrap;html=1;fillColor=#E6E6E6;" vertex="1" parent="1">
                    <mxGeometry x="2260" y="370" width="320" height="30" as="geometry"/>
                </mxCell>
                <mxCell id="OsrczBIvLuB8sDZj5NdH-18" value="InventoryID :&amp;nbsp;&amp;nbsp;XTLSHSLANT&lt;br&gt;Description :&amp;nbsp;SLANT PRECISION TWEEZER" style="rounded=0;whiteSpace=wrap;html=1;fillColor=#E6E6E6;" vertex="1" parent="1">
                    <mxGeometry x="2260" y="320" width="320" height="30" as="geometry"/>
                </mxCell>
                <mxCell id="OsrczBIvLuB8sDZj5NdH-19" value="InventoryID :&amp;nbsp;&amp;nbsp;XTSSPOINT&lt;br&gt;Description :&amp;nbsp;BOX POINT TWEEZERS" style="rounded=0;whiteSpace=wrap;html=1;fillColor=#E6E6E6;" vertex="1" parent="1">
                    <mxGeometry x="1920" y="370" width="320" height="30" as="geometry"/>
                </mxCell>
                <mxCell id="OsrczBIvLuB8sDZj5NdH-20" value="InventoryID :&amp;nbsp;XTLSHPOINT&lt;br&gt;Description :&amp;nbsp;POINT PRECISION TWEEZER" style="rounded=0;whiteSpace=wrap;html=1;fillColor=#E6E6E6;" vertex="1" parent="1">
                    <mxGeometry x="1920" y="320" width="320" height="30" as="geometry"/>
                </mxCell>
                <mxCell id="OsrczBIvLuB8sDZj5NdH-21" value="InventoryID :&amp;nbsp;&amp;nbsp;XTSSSCISSORS&lt;br&gt;Description :&amp;nbsp;BOX SCISSORS" style="rounded=0;whiteSpace=wrap;html=1;fillColor=#E6E6E6;" vertex="1" parent="1">
                    <mxGeometry x="1570" y="320" width="320" height="30" as="geometry"/>
                </mxCell>
                <mxCell id="OsrczBIvLuB8sDZj5NdH-22" value="InventoryID :&amp;nbsp;&amp;nbsp;XTLSHSCISSOR&lt;br&gt;Description :&amp;nbsp;&amp;nbsp;STRAIGHT TRIMMING SCISSOR" style="rounded=0;whiteSpace=wrap;html=1;fillColor=#E6E6E6;" vertex="1" parent="1">
                    <mxGeometry x="1570" y="370" width="320" height="30" as="geometry"/>
                </mxCell>
                <mxCell id="OsrczBIvLuB8sDZj5NdH-41" value="InventoryID :&amp;nbsp;&amp;nbsp;XTPRONSBTLCRM&lt;br&gt;Description :&amp;nbsp;BOTTLE PEROXIDE CREAM" style="rounded=0;whiteSpace=wrap;html=1;fillColor=#E6E6E6;" vertex="1" parent="1">
                    <mxGeometry x="2610" y="370" width="320" height="30" as="geometry"/>
                </mxCell>
                <mxCell id="OsrczBIvLuB8sDZj5NdH-42" value="InventoryID :&amp;nbsp;XTPROPCREME&lt;br&gt;Description :&amp;nbsp;PEROXIDE CREME 1L" style="rounded=0;whiteSpace=wrap;html=1;fillColor=#E6E6E6;" vertex="1" parent="1">
                    <mxGeometry x="2610" y="320" width="320" height="30" as="geometry"/>
                </mxCell>
                <mxCell id="OsrczBIvLuB8sDZj5NdH-43" value="InventoryID :&amp;nbsp;&amp;nbsp;XTPROSSBOXLB&lt;br&gt;Description :&amp;nbsp;BOX LIGHT BROWN" style="rounded=0;whiteSpace=wrap;html=1;fillColor=#E6E6E6;" vertex="1" parent="1">
                    <mxGeometry x="530" y="370" width="320" height="30" as="geometry"/>
                </mxCell>
                <mxCell id="OsrczBIvLuB8sDZj5NdH-44" value="InventoryID :&amp;nbsp;&amp;nbsp;XTPROGWLB&lt;br&gt;Description :&amp;nbsp;TINT LIGHT BROWN&amp;nbsp;" style="rounded=0;whiteSpace=wrap;html=1;fillColor=#E6E6E6;" vertex="1" parent="1">
                    <mxGeometry x="530" y="320" width="320" height="30" as="geometry"/>
                </mxCell>
                <mxCell id="OsrczBIvLuB8sDZj5NdH-45" value="InventoryID :&amp;nbsp;&amp;nbsp;XTPROSSBOXGR&lt;br&gt;Description :&amp;nbsp;BOX GRAPHITE" style="rounded=0;whiteSpace=wrap;html=1;fillColor=#E6E6E6;" vertex="1" parent="1">
                    <mxGeometry x="2960" y="370" width="320" height="30" as="geometry"/>
                </mxCell>
                <mxCell id="OsrczBIvLuB8sDZj5NdH-46" value="InventoryID :&amp;nbsp;&amp;nbsp;XTPROGWGR&lt;br&gt;Description :&amp;nbsp;TINT GRAPHITE&amp;nbsp;" style="rounded=0;whiteSpace=wrap;html=1;fillColor=#E6E6E6;" vertex="1" parent="1">
                    <mxGeometry x="2960" y="320" width="320" height="30" as="geometry"/>
                </mxCell>
                <mxCell id="OsrczBIvLuB8sDZj5NdH-47" value="InventoryID :&amp;nbsp;&amp;nbsp;XTPROSSBOXBLK&lt;br&gt;Description :&amp;nbsp;BOX BLACK" style="rounded=0;whiteSpace=wrap;html=1;fillColor=#E6E6E6;" vertex="1" parent="1">
                    <mxGeometry x="3310" y="370" width="320" height="30" as="geometry"/>
                </mxCell>
                <mxCell id="OsrczBIvLuB8sDZj5NdH-48" value="InventoryID :&amp;nbsp;&amp;nbsp;XTPROGWBLK&lt;br&gt;Description :&amp;nbsp;TINT BLACK" style="rounded=0;whiteSpace=wrap;html=1;fillColor=#E6E6E6;" vertex="1" parent="1">
                    <mxGeometry x="3310" y="320" width="320" height="30" as="geometry"/>
                </mxCell>
                <mxCell id="OsrczBIvLuB8sDZj5NdH-55" value="InventoryID :&amp;nbsp;ECPC&amp;nbsp;&lt;br style=&quot;border-color: var(--border-color);&quot;&gt;Description : PEROXIDE CREME" style="rounded=1;whiteSpace=wrap;html=1;fillColor=#E6FFCC;" vertex="1" parent="1">
                    <mxGeometry x="2610" y="230" width="320" height="40" as="geometry"/>
                </mxCell>
                <mxCell id="OsrczBIvLuB8sDZj5NdH-56" value="InventoryID :&amp;nbsp;&amp;nbsp;ECLBT&lt;br style=&quot;border-color: var(--border-color);&quot;&gt;Description : TINT LIGHT BROWN" style="rounded=1;whiteSpace=wrap;html=1;fillColor=#E6FFCC;" vertex="1" parent="1">
                    <mxGeometry x="530" y="230" width="320" height="40" as="geometry"/>
                </mxCell>
                <mxCell id="OsrczBIvLuB8sDZj5NdH-57" value="InventoryID :&amp;nbsp;&amp;nbsp;ECGT&lt;br style=&quot;border-color: var(--border-color);&quot;&gt;Description : TINT GRAPHITE" style="rounded=1;whiteSpace=wrap;html=1;fillColor=#E6FFCC;" vertex="1" parent="1">
                    <mxGeometry x="2960" y="230" width="320" height="40" as="geometry"/>
                </mxCell>
                <mxCell id="OsrczBIvLuB8sDZj5NdH-58" value="InventoryID :&amp;nbsp;&amp;nbsp;ECBT&lt;br style=&quot;border-color: var(--border-color);&quot;&gt;Description : TINT BLACK" style="rounded=1;whiteSpace=wrap;html=1;fillColor=#E6FFCC;" vertex="1" parent="1">
                    <mxGeometry x="3310" y="230" width="320" height="40" as="geometry"/>
                </mxCell>
                <mxCell id="OsrczBIvLuB8sDZj5NdH-59" value="InventoryID :&amp;nbsp;&amp;nbsp;BCRTNB&lt;br style=&quot;border-color: var(--border-color);&quot;&gt;Description : BROW TINT NATURAL BROWN" style="rounded=1;whiteSpace=wrap;html=1;fillColor=#E6FFCC;" vertex="1" parent="1">
                    <mxGeometry x="880" y="230" width="320" height="40" as="geometry"/>
                </mxCell>
                <mxCell id="OsrczBIvLuB8sDZj5NdH-60" value="InventoryID :&amp;nbsp;&amp;nbsp;BCHNAMD&lt;br style=&quot;border-color: var(--border-color);&quot;&gt;Description : GLASS MIXING DISH" style="rounded=1;whiteSpace=wrap;html=1;fillColor=#E6FFCC;" vertex="1" parent="1">
                    <mxGeometry x="1220" y="230" width="320" height="40" as="geometry"/>
                </mxCell>
                <mxCell id="OsrczBIvLuB8sDZj5NdH-62" value="InventoryID :&amp;nbsp;BCTSLANT&amp;nbsp;&lt;br style=&quot;border-color: var(--border-color);&quot;&gt;Description : SLANT PRECISION TWEEZER" style="rounded=1;whiteSpace=wrap;html=1;fillColor=#E6FFCC;" vertex="1" parent="1">
                    <mxGeometry x="2260" y="230" width="320" height="40" as="geometry"/>
                </mxCell>
                <mxCell id="OsrczBIvLuB8sDZj5NdH-63" value="InventoryID :&amp;nbsp;&amp;nbsp;BCTPOINT&lt;br style=&quot;border-color: var(--border-color);&quot;&gt;Description : POINT PRECISION TWEEZER" style="rounded=1;whiteSpace=wrap;html=1;fillColor=#E6FFCC;" vertex="1" parent="1">
                    <mxGeometry x="1920" y="230" width="320" height="40" as="geometry"/>
                </mxCell>
                <mxCell id="OsrczBIvLuB8sDZj5NdH-64" value="InventoryID :&amp;nbsp;&amp;nbsp;BCSSTRAIGHT&lt;br style=&quot;border-color: var(--border-color);&quot;&gt;Description : STRAight trimming scissor" style="rounded=1;whiteSpace=wrap;html=1;fillColor=#E6FFCC;" vertex="1" parent="1">
                    <mxGeometry x="1570" y="230" width="320" height="40" as="geometry"/>
                </mxCell>
                <mxCell id="OsrczBIvLuB8sDZj5NdH-74" style="edgeStyle=none;html=1;entryX=0.5;entryY=0;entryDx=0;entryDy=0;" edge="1" parent="1" source="OsrczBIvLuB8sDZj5NdH-68" target="OsrczBIvLuB8sDZj5NdH-71">
                    <mxGeometry relative="1" as="geometry"/>
                </mxCell>
                <mxCell id="OsrczBIvLuB8sDZj5NdH-84" style="edgeStyle=none;html=1;entryX=0.5;entryY=0;entryDx=0;entryDy=0;" edge="1" parent="1" source="OsrczBIvLuB8sDZj5NdH-68" target="OsrczBIvLuB8sDZj5NdH-70">
                    <mxGeometry relative="1" as="geometry"/>
                </mxCell>
                <mxCell id="OsrczBIvLuB8sDZj5NdH-68" value="InventoryID:&amp;nbsp;BCPROKITIINW&lt;br&gt;Description:&amp;nbsp;PROFESSIONAL TINT KIT (NO WAX)" style="shape=parallelogram;perimeter=parallelogramPerimeter;whiteSpace=wrap;html=1;fixedSize=1;fillColor=#CCE5FF;" vertex="1" parent="1">
                    <mxGeometry x="3255" y="-30" width="430" height="60" as="geometry"/>
                </mxCell>
                <mxCell id="OsrczBIvLuB8sDZj5NdH-82" style="edgeStyle=none;html=1;entryX=0.5;entryY=0;entryDx=0;entryDy=0;" edge="1" parent="1" source="OsrczBIvLuB8sDZj5NdH-70" target="OsrczBIvLuB8sDZj5NdH-78">
                    <mxGeometry relative="1" as="geometry"/>
                </mxCell>
                <mxCell id="OsrczBIvLuB8sDZj5NdH-83" style="edgeStyle=none;html=1;" edge="1" parent="1" source="OsrczBIvLuB8sDZj5NdH-70" target="OsrczBIvLuB8sDZj5NdH-75">
                    <mxGeometry relative="1" as="geometry"/>
                </mxCell>
                <mxCell id="OsrczBIvLuB8sDZj5NdH-70" value="B" style="ellipse;whiteSpace=wrap;html=1;fillColor=#FF3333;" vertex="1" parent="1">
                    <mxGeometry x="2910" y="90" width="120" height="30" as="geometry"/>
                </mxCell>
                <mxCell id="OsrczBIvLuB8sDZj5NdH-79" style="edgeStyle=none;html=1;entryX=1;entryY=0.5;entryDx=0;entryDy=0;" edge="1" parent="1" source="OsrczBIvLuB8sDZj5NdH-71" target="OsrczBIvLuB8sDZj5NdH-78">
                    <mxGeometry relative="1" as="geometry">
                        <Array as="points">
                            <mxPoint x="4860" y="180"/>
                            <mxPoint x="4850" y="240"/>
                        </Array>
                    </mxGeometry>
                </mxCell>
                <mxCell id="OsrczBIvLuB8sDZj5NdH-80" style="edgeStyle=none;html=1;entryX=1;entryY=0.5;entryDx=0;entryDy=0;" edge="1" parent="1" source="OsrczBIvLuB8sDZj5NdH-71" target="OsrczBIvLuB8sDZj5NdH-77">
                    <mxGeometry relative="1" as="geometry">
                        <Array as="points">
                            <mxPoint x="4850" y="180"/>
                            <mxPoint x="4850" y="368"/>
                        </Array>
                    </mxGeometry>
                </mxCell>
                <mxCell id="OsrczBIvLuB8sDZj5NdH-71" value="A" style="ellipse;whiteSpace=wrap;html=1;fillColor=#FF3333;" vertex="1" parent="1">
                    <mxGeometry x="4300" y="125" width="120" height="30" as="geometry"/>
                </mxCell>
                <mxCell id="OsrczBIvLuB8sDZj5NdH-75" value="" style="rounded=1;whiteSpace=wrap;html=1;fillColor=none;strokeColor=#FF3333;strokeWidth=5;" vertex="1" parent="1">
                    <mxGeometry x="520" y="220" width="3120" height="60" as="geometry"/>
                </mxCell>
                <mxCell id="OsrczBIvLuB8sDZj5NdH-78" value="" style="rounded=1;whiteSpace=wrap;html=1;fillColor=none;strokeColor=#FF3333;strokeWidth=5;" vertex="1" parent="1">
                    <mxGeometry x="3660" y="220" width="1130" height="60" as="geometry"/>
                </mxCell>
                <mxCell id="OsrczBIvLuB8sDZj5NdH-100" style="edgeStyle=none;html=1;entryX=0.5;entryY=0;entryDx=0;entryDy=0;" edge="1" parent="1" source="OsrczBIvLuB8sDZj5NdH-87" target="OsrczBIvLuB8sDZj5NdH-68">
                    <mxGeometry relative="1" as="geometry"/>
                </mxCell>
                <mxCell id="OsrczBIvLuB8sDZj5NdH-101" style="edgeStyle=none;html=1;entryX=0.5;entryY=0;entryDx=0;entryDy=0;" edge="1" parent="1" source="OsrczBIvLuB8sDZj5NdH-87" target="OsrczBIvLuB8sDZj5NdH-92">
                    <mxGeometry relative="1" as="geometry"/>
                </mxCell>
                <mxCell id="OsrczBIvLuB8sDZj5NdH-87" value="InventoryID: BCPROKITII&lt;br&gt;Description: PROFESSIONAL TINIT KIT + WAX" style="shape=trapezoid;perimeter=trapezoidPerimeter;whiteSpace=wrap;html=1;fixedSize=1;fillColor=#FFCCFF;" vertex="1" parent="1">
                    <mxGeometry x="2910" y="-240" width="530" height="60" as="geometry"/>
                </mxCell>
                <mxCell id="OsrczBIvLuB8sDZj5NdH-97" style="edgeStyle=none;html=1;entryX=0.5;entryY=0;entryDx=0;entryDy=0;" edge="1" parent="1" source="OsrczBIvLuB8sDZj5NdH-89" target="OsrczBIvLuB8sDZj5NdH-93">
                    <mxGeometry relative="1" as="geometry"/>
                </mxCell>
                <mxCell id="OsrczBIvLuB8sDZj5NdH-98" style="edgeStyle=none;html=1;entryX=0.5;entryY=0;entryDx=0;entryDy=0;" edge="1" parent="1" source="OsrczBIvLuB8sDZj5NdH-89" target="OsrczBIvLuB8sDZj5NdH-92">
                    <mxGeometry relative="1" as="geometry"/>
                </mxCell>
                <mxCell id="OsrczBIvLuB8sDZj5NdH-99" style="edgeStyle=none;html=1;entryX=0.5;entryY=0;entryDx=0;entryDy=0;" edge="1" parent="1" source="OsrczBIvLuB8sDZj5NdH-89" target="OsrczBIvLuB8sDZj5NdH-68">
                    <mxGeometry relative="1" as="geometry"/>
                </mxCell>
                <mxCell id="OsrczBIvLuB8sDZj5NdH-89" value="InventoryID: BCPROKITIIWW&amp;nbsp;&lt;br&gt;Description: PRO TINT KIT + WAX + US WARMER" style="shape=trapezoid;perimeter=trapezoidPerimeter;whiteSpace=wrap;html=1;fixedSize=1;fillColor=#FFCCFF;" vertex="1" parent="1">
                    <mxGeometry x="1970" y="-230" width="530" height="60" as="geometry"/>
                </mxCell>
                <mxCell id="OsrczBIvLuB8sDZj5NdH-92" value="InventoryID :&amp;nbsp;&amp;nbsp;BCWAXGOLD&lt;br&gt;Description : GOLD WAX 1KG" style="rounded=0;whiteSpace=wrap;html=1;fillColor=#E6E6E6;" vertex="1" parent="1">
                    <mxGeometry x="2430" y="-15" width="320" height="30" as="geometry"/>
                </mxCell>
                <mxCell id="OsrczBIvLuB8sDZj5NdH-93" value="InventoryID :&amp;nbsp;&amp;nbsp;BCWAXPOTUS&lt;br&gt;Description : WAX WARMER (US PLUG)" style="rounded=0;whiteSpace=wrap;html=1;fillColor=#E6E6E6;" vertex="1" parent="1">
                    <mxGeometry x="1950" y="-15" width="320" height="30" as="geometry"/>
                </mxCell>
            </root>
        </mxGraphModel>
    </diagram>
</mxfile>